        <svg id="Layer_1" data-name="Layer 1" xmlns="http://www.w3.org/2000/svg" viewBox="0 0 607.70871 984.80617">
            <defs>
                <style>
                    .cls-1, .cls-2 {
                        fill: #03ea55;
                        stroke: #155404;
                        stroke-miterlimit: 10;
                    }

                    .cls-1 {
                        stroke-width: 15px;
                    }
                </style>
            </defs>
            <title>logoqhacks</title>
            <path class="cls-1" d="M352.054,299.59723c-5.19879-2.94693,7.21765-39.71906,15.672-60.90025,2.68384-6.724,12.18036-30.51625,21.758-45.45454,26.13739-40.76668,68.56818-40.06451,116.66666-65.15152C591.83917,83.39787,607.34155,2.84432,628.878,11.42424c18.77679,7.48052,16.72986,72.59215-4.9043,99.27419a117.36765,117.36765,0,0,1-19.22516,19.36922c-34.5658,27.2395-58.30072,36.56519-108.06522,59.43706C443.86184,213.78157,417.4511,225.92,396.47546,246.5764,370.194,272.45782,355.56271,301.58612,352.054,299.59723Z" transform="translate(-48.62658 -3.29013)" />
            <path class="cls-1" d="M498.08254,622.68775c49.91583,64.64075,4.20038,218.62451-145.30661,355.303-151.25217-134.93042-195.68956-290.31134-145.30658-355.303,39.52905-50.9906,140.39682-50.17535,149.852-50C368.56527,572.8963,460.95663,574.6099,498.08254,622.68775Z" transform="translate(-48.62658 -3.29013)" />
            <path class="cls-1" d="M354.09933,736.53749C325.633,829.55025,233.82013,865.6461,220.065,870.80213c-8.99747-11.61171-68.17149-90.54807-43.54638-184.65078,19.40018-74.13606,88.09353-147.29969,134.03431-134.2646S376.52572,663.26008,354.09933,736.53749Z" transform="translate(-48.62658 -3.29013)" />
            <path class="cls-1" d="M346.47367,736.53749C374.94,829.55025,466.75286,865.6461,480.508,870.80213c8.99747-11.61171,68.17149-90.54807,43.54638-184.65078C504.65417,612.01529,435.96083,538.85167,390.02,551.88676S324.04727,663.26008,346.47367,736.53749Z" transform="translate(-48.62658 -3.29013)" />
            <path class="cls-1" d="M479.48919,650.47236c27.84668,43.8941,64.281,70.7063,90.88568,86.33319,11.23834-18.84326,27.03314-50.9715,30.32642-92.39374C610.68511,518.83692,498.7921,395.66038,459.599,409.59376,424.27153,422.1529,419.6718,556.184,479.48919,650.47236Z" transform="translate(-48.62658 -3.29013)" />
            <path class="cls-1" d="M241.93939,649.93223c-27.84674,43.89407-64.28107,70.70627-90.88573,86.33316-11.2383-18.84326-27.03311-50.9715-30.32639-92.39377-9.98381-125.57486,101.90916-248.7514,141.10225-234.818C297.157,421.61272,301.75671,555.6438,241.93939,649.93223Z" transform="translate(-48.62658 -3.29013)" />
            <path class="cls-2" d="M394.96969,674.17466" transform="translate(-48.62658 -3.29013)" /><path class="cls-2" d="M408.60607,662.05344" transform="translate(-48.62658 -3.29013)" /><path class="cls-1" d="M1502.54544,722.65949" transform="translate(-48.62658 -3.29013)" /><path class="cls-1" d="M457.09091,572.65949" transform="translate(-48.62658 -3.29013)" />
            <path class="cls-1" d="M479.06063,597.01062c-1.2536,87.16156-50.16437,168.70373-126.51517,212.01251-76.3508-43.30878-125.26157-124.85095-126.51514-212.01251-1.41763-98.56962,58.0029-212.01251,126.51514-212.01251S480.4783,498.441,479.06063,597.01062Z" transform="translate(-48.62658 -3.29013)" />
            <path class="cls-1" d="M357.32138,590.86957A287.37865,287.37865,0,0,1,298,434.78071,309.19587,309.19587,0,0,1,204.0606,537.811a310.05338,310.05338,0,0,1-146.9697,53.0303c3.76118-34.01538,13.91534-84.81781,43.93939-137.87878,12.10693-21.39638,100.2489-177.16814,257.53729-176.0831,160.602,1.1079,246.52869,164.7471,256.02216,183.49609A333.3182,333.3182,0,0,1,648,572.65949c-21.77484,2.00751-74.94147,3.93484-131.81824-25.75757C448.166,511.39441,418.749,453.58942,410.12121,434.78071a275.4145,275.4145,0,0,1-52.79984,156.08887Z" transform="translate(-48.62658 -3.29013)" />
            <path class="cls-1" d="M1388.90908,696.90192" transform="translate(-48.62658 -3.29013)" /><line class="cls-1" x1="304.91891" y1="592.7205" x2="270.07039" y2="635.03604" /><line class="cls-1" x1="274.02399" y1="686.6118" x2="303.47275" y2="727.24736" />
            <line class="cls-1" x1="301.47275" y1="720.24736" x2="302.91889" y2="860.51201" />
            <line class="cls-1" x1="430.86261" y1="647.18223" x2="420.73351" y2="790.37968" />
            <line class="cls-1" x1="340.36041" y1="891.42661" x2="421.73351" y2="787.37968" />
            <line class="cls-1" x1="178.3789" y1="675.94513" x2="191.28251" y2="804.73301" />
            <line class="cls-1" x1="189.28251" y1="801.73301" x2="262.03123" y2="877.79112" />
            <circle class="cls-1" cx="302.19582" cy="892.42661" r="39.16459" />
            <circle class="cls-1" cx="303.91891" cy="658.76332" r="42.33561" />
            <path class="cls-1" d="M384.36364,472.65949" transform="translate(-48.62658 -3.29013)" />

        </svg>